<svg xmlns="http://www.w3.org/2000/svg" xmlns:svg="http://www.w3.org/2000/svg" id="svg2985" width="141.25" height="197.251" version="1.1"><metadata id="metadata2991"/><g id="layer1" transform="translate(-317.4687,-30.499212)"><rect style="fill:#1941d6;fill-opacity:1;stroke:#000;stroke-width:1.24015749;stroke-linecap:butt;stroke-linejoin:round;stroke-miterlimit:4;stroke-opacity:1;stroke-dasharray:none;stroke-dashoffset:0" id="rect2994" width="140" height="196" x="318.101" y="31.124" ry="0"/><g style="font-size:172px;font-style:normal;font-variant:normal;font-weight:400;font-stretch:normal;text-align:start;line-height:125%;letter-spacing:0;word-spacing:0;writing-mode:lr-tb;text-anchor:start;fill:#f9f9f9;fill-opacity:1;stroke:none;font-family:Nimbus Sans L;-inkscape-font-specification:Nimbus Sans L" id="text2983"><path id="path2988" d="m 380.80353,132.46095 1.892,0 6.364,-0.172 c 16.68399,0 25.284,7.56801 25.284,22.188 0,15.30798 -9.46001,24.424 -25.284,24.424 -16.51198,0 -24.596,-8.25602 -25.628,-25.972 l -15.136,0 c 0.688,9.80399 2.40801,16.168 5.332,21.672 6.192,11.69598 18.23202,17.716 34.916,17.716 25.11198,0 41.28,-14.96403 41.28,-38.012 0,-15.47999 -6.02001,-24.08001 -20.64,-29.068 11.35199,-4.472 17.028,-13.07202 17.028,-25.284003 0,-20.983979 -13.93202,-33.54 -37.152,-33.54 -24.59597,0 -37.668,13.416026 -38.184,39.388003 l 15.136,0 c 0.172,-7.395996 0.86001,-11.524007 2.752,-15.308003 3.44,-6.707994 11.00801,-10.836 20.468,-10.836 13.41599,0 21.5,7.912013 21.5,20.812003 0,8.59999 -3.096,13.76 -9.804,16.512 -4.12799,1.71999 -9.46001,2.408 -20.124,2.58 l 0,12.9"/></g></g></svg>