<svg xmlns="http://www.w3.org/2000/svg" xmlns:svg="http://www.w3.org/2000/svg" id="svg2985" width="141.25" height="197.251" version="1.1"><metadata id="metadata2991"/><g id="layer1" transform="translate(-317.4687,-30.499212)"><rect style="fill:#1941d6;fill-opacity:1;stroke:#000;stroke-width:1.24015749;stroke-linecap:butt;stroke-linejoin:round;stroke-miterlimit:4;stroke-opacity:1;stroke-dasharray:none;stroke-dashoffset:0" id="rect2994" width="140" height="196" x="318.101" y="31.124" ry="0"/><g style="font-size:172px;font-style:normal;font-variant:normal;font-weight:400;font-stretch:normal;text-align:start;line-height:125%;letter-spacing:0;word-spacing:0;writing-mode:lr-tb;text-anchor:start;fill:#f9f9f9;fill-opacity:1;stroke:none;font-family:Nimbus Sans L;-inkscape-font-specification:Nimbus Sans L" id="text2983"><path id="path2988" d="m 425.84695,98.232947 c -2.924,-19.95198 -15.99602,-31.82 -34.572,-31.82 -13.41599,0 -25.45601,6.53601 -32.68,17.372 -7.56799,11.867988 -11.008,26.832023 -11.008,49.020003 0,20.46798 3.09601,33.54001 10.32,44.376 6.53599,9.80399 17.20001,15.136 30.616,15.136 23.21998,0 39.904,-17.20003 39.904,-41.108 0,-22.70398 -15.48002,-38.7 -37.324,-38.7 -12.03999,0 -21.50001,4.64401 -28.036,13.588 0.172,-29.755974 9.80402,-46.268003 27.176,-46.268003 10.66399,0 18.06,6.708011 20.468,18.404 l 15.136,0 m -36.636,27.692003 c 14.61998,0 23.736,10.14801 23.736,26.488 0,15.30798 -10.32002,26.488 -24.252,26.488 -14.10399,0 -24.768,-11.69602 -24.768,-27.348 0,-15.13599 10.32001,-25.628 25.284,-25.628"/></g></g></svg>