<svg xmlns="http://www.w3.org/2000/svg" xmlns:svg="http://www.w3.org/2000/svg" id="svg2985" width="141.25" height="197.251" version="1.1"><metadata id="metadata2991"/><g id="layer1" transform="translate(-317.4687,-30.499212)"><rect style="fill:#1941d6;fill-opacity:1;stroke:#000;stroke-width:1.24015749;stroke-linecap:butt;stroke-linejoin:round;stroke-miterlimit:4;stroke-opacity:1;stroke-dasharray:none;stroke-dashoffset:0" id="rect2994" width="140" height="196" x="318.101" y="31.124" ry="0"/><g style="font-size:172px;font-style:normal;font-variant:normal;font-weight:400;font-stretch:normal;text-align:start;line-height:125%;letter-spacing:0;word-spacing:0;writing-mode:lr-tb;text-anchor:start;fill:#f9f9f9;fill-opacity:1;stroke:none;font-family:Nimbus Sans L;-inkscape-font-specification:Nimbus Sans L" id="text2983"><path id="path2988" d="m 408.47487,124.20495 c 12.55599,-7.568 16.684,-13.76001 16.684,-25.284003 0,-19.091981 -14.96402,-32.508 -36.636,-32.508 -21.49998,0 -36.636,13.416019 -36.636,32.508 0,11.351993 4.12801,17.544003 16.512,25.284003 -13.93199,6.70799 -20.812,16.85601 -20.812,30.272 0,22.35997 16.85602,37.84 40.936,37.84 24.07998,0 40.936,-15.48003 40.936,-37.668 0,-13.58799 -6.88001,-23.73601 -20.984,-30.444 m -19.952,-44.376003 c 12.89999,0 21.156,7.568012 21.156,19.436 0,11.351993 -8.42801,18.920003 -21.156,18.920003 -12.72799,0 -21.156,-7.56801 -21.156,-19.092003 0,-11.695989 8.42801,-19.264 21.156,-19.264 m 0,51.084003 c 15.13598,0 25.456,9.63201 25.456,23.908 0,14.44798 -10.32002,24.08 -25.8,24.08 -14.79199,0 -25.112,-9.80402 -25.112,-24.08 0,-14.27599 10.32002,-23.908 25.456,-23.908"/></g></g></svg>