<svg xmlns="http://www.w3.org/2000/svg" xmlns:svg="http://www.w3.org/2000/svg" id="svg2985" width="141.25" height="197.251" version="1.1"><metadata id="metadata2991"/><g id="layer1" transform="translate(-317.4687,-30.499212)"><rect style="fill:#1941d6;fill-opacity:1;stroke:#000;stroke-width:1.24015749;stroke-linecap:butt;stroke-linejoin:round;stroke-miterlimit:4;stroke-opacity:1;stroke-dasharray:none;stroke-dashoffset:0" id="rect2994" width="140" height="196" x="318.101" y="31.124" ry="0"/><g style="font-size:172px;font-style:normal;font-variant:normal;font-weight:400;font-stretch:normal;text-align:start;line-height:125%;letter-spacing:0;word-spacing:0;writing-mode:lr-tb;text-anchor:start;fill:#f9f9f9;fill-opacity:1;stroke:none;font-family:Nimbus Sans L;-inkscape-font-specification:Nimbus Sans L" id="text2983" transform="translate(-0.88582551,6.0236219)"><path id="path2986" d="m 447.63862,182.34095 -16.168,-13.244 c 11.86799,-13.07199 17.716,-29.24002 17.716,-49.02 0,-38.871966 -24.42403,-65.360005 -60.544,-65.360005 -36.11996,0 -60.544,26.48804 -60.544,65.704005 0,39.21596 24.42404,65.704 60.544,65.704 12.38399,0 22.70401,-2.75201 32.852,-8.772 l 18.06,14.964 8.084,-9.976 m -43.344,-35.432 -7.912,9.632 12.728,10.664 c -7.39599,3.43999 -13.07201,4.816 -20.64,4.816 -26.65997,0 -44.376,-20.64004 -44.376,-51.6 0,-30.959974 17.88803,-51.600005 44.548,-51.600005 26.65998,0 44.548,20.640031 44.548,51.428005 0,16.16798 -4.30001,28.72401 -13.588,39.216 l -15.308,-12.556"/></g></g></svg>