<svg xmlns="http://www.w3.org/2000/svg" xmlns:svg="http://www.w3.org/2000/svg" id="svg2985" width="141.25" height="197.251" version="1.1"><metadata id="metadata2991"/><g id="layer1" transform="translate(-317.4687,-30.499212)"><rect style="fill:#ce0e0e;fill-opacity:1;stroke:#000;stroke-width:1.24015749;stroke-linecap:butt;stroke-linejoin:round;stroke-miterlimit:4;stroke-opacity:1;stroke-dasharray:none;stroke-dashoffset:0" id="rect2994" width="140" height="196" x="318.101" y="31.124" ry="0"/><g style="font-size:172px;font-style:normal;font-variant:normal;font-weight:400;font-stretch:normal;text-align:start;line-height:125%;letter-spacing:0;word-spacing:0;writing-mode:lr-tb;text-anchor:start;fill:#f9f9f9;fill-opacity:1;stroke:none;font-family:Nimbus Sans L;-inkscape-font-specification:Nimbus Sans L" id="text2983"><path id="path2988" d="m 428.77114,177.35296 -64.156,0 c 1.54799,-9.97599 7.05201,-16.34001 22.016,-25.112 l 17.2,-9.288 c 17.02798,-9.288 25.8,-21.84402 25.8,-36.808 0,-10.147994 -4.12801,-19.608011 -11.352,-26.144004 -7.224,-6.535994 -16.16802,-9.632 -27.692,-9.632 -15.47999,0 -27.00401,5.50401 -33.712,15.824 -4.3,6.535993 -6.192,14.104014 -6.536,26.488004 l 15.136,0 c 0.516,-8.256 1.548,-13.244008 3.612,-17.200004 3.95599,-7.395993 11.868,-11.868 20.984,-11.868 13.75998,0 24.08,9.804013 24.08,22.876004 0,9.63199 -5.67602,17.888 -16.512,24.08 l -15.824,8.944 c -25.45598,14.44798 -32.85201,25.97202 -34.228,52.804 l 81.184,0 0,-14.964"/></g></g></svg>