<svg xmlns="http://www.w3.org/2000/svg" xmlns:svg="http://www.w3.org/2000/svg" id="svg2985" width="141.25" height="197.251" version="1.1"><metadata id="metadata2991"/><g id="layer1" transform="translate(-317.4687,-30.499212)"><rect style="fill:#ce0e0e;fill-opacity:1;stroke:#000;stroke-width:1.24015749;stroke-linecap:butt;stroke-linejoin:round;stroke-miterlimit:4;stroke-opacity:1;stroke-dasharray:none;stroke-dashoffset:0" id="rect2994" width="140" height="196" x="318.101" y="31.124" ry="0"/><g style="font-size:172px;font-style:normal;font-variant:normal;font-weight:400;font-stretch:normal;text-align:start;line-height:125%;letter-spacing:0;word-spacing:0;writing-mode:lr-tb;text-anchor:start;fill:#f9f9f9;fill-opacity:1;stroke:none;font-family:Nimbus Sans L;-inkscape-font-specification:Nimbus Sans L" id="text2983"><path id="path2988" d="m 423.43886,66.412947 -62.952,0 -9.116,66.392003 13.932,0 c 7.052,-8.42799 12.90001,-11.352 22.36,-11.352 16.33999,0 26.66,11.18001 26.66,29.24 0,17.54398 -10.14801,28.208 -26.66,28.208 -13.24398,0 -21.328,-6.70802 -24.94,-20.468 l -15.136,0 c 2.064,9.97599 3.78401,14.792 7.396,19.264 6.88,9.28799 19.26402,14.62 33.024,14.62 24.59598,0 41.796,-17.88803 41.796,-43.688 0,-24.07998 -15.99602,-40.592 -39.388,-40.592 -8.59999,0 -15.48,2.236 -22.532,7.396 l 4.816,-34.056003 50.74,0 0,-14.964"/></g></g></svg>