<svg xmlns="http://www.w3.org/2000/svg" xmlns:svg="http://www.w3.org/2000/svg" id="svg2985" width="141.25" height="197.251" version="1.1"><metadata id="metadata2991"/><g id="layer1" transform="translate(-317.4687,-30.499212)"><rect style="fill:#ce0e0e;fill-opacity:1;stroke:#000;stroke-width:1.24015749;stroke-linecap:butt;stroke-linejoin:round;stroke-miterlimit:4;stroke-opacity:1;stroke-dasharray:none;stroke-dashoffset:0" id="rect2994" width="140" height="196" x="318.101" y="31.124" ry="0"/><g style="font-size:172px;font-style:normal;font-variant:normal;font-weight:400;font-stretch:normal;text-align:start;line-height:125%;letter-spacing:0;word-spacing:0;writing-mode:lr-tb;text-anchor:start;fill:#f9f9f9;fill-opacity:1;stroke:none;font-family:Nimbus Sans L;-inkscape-font-specification:Nimbus Sans L" id="text2983"><path id="path2988" d="m 350.16684,160.49695 c 2.924,19.95198 15.99602,31.82 34.572,31.82 13.41599,0 25.62801,-6.53601 32.68,-17.372 7.73999,-11.86799 11.18,-26.83203 11.18,-49.02 0,-20.46798 -3.096,-33.540014 -10.32,-44.376003 -6.70799,-9.803991 -17.37201,-15.136 -30.788,-15.136 -23.21997,0 -39.904,17.200024 -39.904,41.108003 0,22.70397 15.48002,38.7 37.496,38.7 11.52399,0 19.95201,-4.12801 27.864,-13.588 -0.172,29.75597 -9.80402,46.268 -27.176,46.268 -10.66399,0 -18.06,-6.70802 -20.468,-18.404 l -15.136,0 m 37.152,-80.840003 c 14.10399,0 24.768,11.696015 24.768,27.520003 0,14.96398 -10.49201,25.628 -25.284,25.628 -14.61998,0 -23.736,-10.14802 -23.736,-26.488 0,-15.479988 10.32002,-26.660003 24.252,-26.660003"/></g></g></svg>