<svg xmlns="http://www.w3.org/2000/svg" xmlns:cc="http://web.resource.org/cc/" xmlns:svg="http://www.w3.org/2000/svg" xmlns:xlink="http://www.w3.org/1999/xlink" id="svg2" width="140" height="190" x="0" y="0" version="1.0"><metadata/><defs id="defs3"><linearGradient id="linearGradient3920"><stop id="stop3922" offset="0" style="stop-color:#fff;stop-opacity:1"/><stop id="stop3924" offset="1" style="stop-color:#fff;stop-opacity:0"/></linearGradient><linearGradient id="linearGradient2060"><stop id="stop2062" offset="0" style="stop-color:#ebf0d0;stop-opacity:1"/><stop id="stop2064" offset="1" style="stop-color:#ffffeb;stop-opacity:1"/></linearGradient><linearGradient id="linearGradient1575"><stop id="stop1576" offset="0" style="stop-color:#fff;stop-opacity:.5"/><stop id="stop1577" offset="1" style="stop-color:#fff;stop-opacity:0"/></linearGradient><linearGradient id="linearGradient4853" x1="2" x2="109" y1="63.1" y2="128.695" gradientTransform="translate(0.000000,-1.000000)" gradientUnits="userSpaceOnUse" xlink:href="#linearGradient2060"/><linearGradient id="linearGradient3926" x1="233.887" x2="159.435" y1="142.784" y2="209.561" gradientUnits="userSpaceOnUse" xlink:href="#linearGradient3920"/><linearGradient id="linearGradient1368" x1="233.887" x2="159.435" y1="142.784" y2="209.561" gradientUnits="userSpaceOnUse" xlink:href="#linearGradient3920"/><linearGradient id="linearGradient1366" x1="2" x2="109" y1="63.1" y2="128.695" gradientTransform="translate(0.000000,-1.000000)" gradientUnits="userSpaceOnUse" xlink:href="#linearGradient2060"/><linearGradient id="linearGradient1360"><stop id="stop1362" offset="0" style="stop-color:#fff;stop-opacity:.5"/><stop id="stop1364" offset="1" style="stop-color:#fff;stop-opacity:0"/></linearGradient><linearGradient id="linearGradient1354"><stop id="stop1356" offset="0" style="stop-color:#ebf0d0;stop-opacity:1"/><stop id="stop1358" offset="1" style="stop-color:#ffffeb;stop-opacity:1"/></linearGradient><linearGradient id="linearGradient1398" x1="2" x2="109" y1="63.1" y2="128.695" gradientTransform="translate(0.000000,-1.000000)" gradientUnits="userSpaceOnUse" xlink:href="#linearGradient2060"/><linearGradient id="linearGradient1538" x1="2" x2="109" y1="63.1" y2="128.695" gradientTransform="translate(0.000000,-1.000000)" gradientUnits="userSpaceOnUse" xlink:href="#linearGradient2060"/><linearGradient id="linearGradient1532"><stop id="stop1534" offset="0" style="stop-color:#ebf0d0;stop-opacity:1"/><stop id="stop1536" offset="1" style="stop-color:#ffffeb;stop-opacity:1"/></linearGradient><linearGradient id="linearGradient1526"><stop id="stop1528" offset="0" style="stop-color:#fff;stop-opacity:.5"/><stop id="stop1530" offset="1" style="stop-color:#fff;stop-opacity:0"/></linearGradient><linearGradient id="linearGradient1524" x1="2" x2="109" y1="63.1" y2="128.695" gradientTransform="translate(0.000000,-1.000000)" gradientUnits="userSpaceOnUse" xlink:href="#linearGradient2060"/><linearGradient id="linearGradient1522" x1="233.887" x2="159.435" y1="142.784" y2="209.561" gradientUnits="userSpaceOnUse" xlink:href="#linearGradient3920"/><linearGradient id="linearGradient1520" x1="233.887" x2="159.435" y1="142.784" y2="209.561" gradientUnits="userSpaceOnUse" xlink:href="#linearGradient3920"/><linearGradient id="linearGradient1518" x1="2" x2="109" y1="63.1" y2="128.695" gradientTransform="translate(0.000000,-1.000000)" gradientUnits="userSpaceOnUse" xlink:href="#linearGradient2060"/><linearGradient id="linearGradient1512"><stop id="stop1514" offset="0" style="stop-color:#fff;stop-opacity:.5"/><stop id="stop1516" offset="1" style="stop-color:#fff;stop-opacity:0"/></linearGradient><linearGradient id="linearGradient1506"><stop id="stop1508" offset="0" style="stop-color:#ebf0d0;stop-opacity:1"/><stop id="stop1510" offset="1" style="stop-color:#ffffeb;stop-opacity:1"/></linearGradient><linearGradient id="linearGradient1579" x1="2" x2="109" y1="63.1" y2="128.695" gradientTransform="translate(0.000000,-1.000000)" gradientUnits="userSpaceOnUse" xlink:href="#linearGradient2060"/><linearGradient id="linearGradient5238" x1="2" x2="109" y1="63.1" y2="128.695" gradientTransform="translate(0.000000,-1.000000)" gradientUnits="userSpaceOnUse" xlink:href="#linearGradient2060"/><linearGradient id="linearGradient5150"><stop id="stop5152" offset="0" style="stop-color:#ebf0d0;stop-opacity:1"/><stop id="stop5154" offset="1" style="stop-color:#ffffeb;stop-opacity:1"/></linearGradient><linearGradient id="linearGradient5156"><stop id="stop5158" offset="0" style="stop-color:#fff;stop-opacity:.5"/><stop id="stop5160" offset="1" style="stop-color:#fff;stop-opacity:0"/></linearGradient><linearGradient id="linearGradient5162" x1="2" x2="109" y1="63.1" y2="128.695" gradientTransform="translate(0.000000,-1.000000)" gradientUnits="userSpaceOnUse" xlink:href="#linearGradient2060"/><linearGradient id="linearGradient5164" x1="233.887" x2="159.435" y1="142.784" y2="209.561" gradientUnits="userSpaceOnUse" xlink:href="#linearGradient3920"/><linearGradient id="linearGradient5166" x1="233.887" x2="159.435" y1="142.784" y2="209.561" gradientUnits="userSpaceOnUse" xlink:href="#linearGradient3920"/><linearGradient id="linearGradient5168" x1="2" x2="109" y1="63.1" y2="128.695" gradientTransform="translate(0.000000,-1.000000)" gradientUnits="userSpaceOnUse" xlink:href="#linearGradient2060"/><linearGradient id="linearGradient5170"><stop id="stop5172" offset="0" style="stop-color:#fff;stop-opacity:.5"/><stop id="stop5174" offset="1" style="stop-color:#fff;stop-opacity:0"/></linearGradient><linearGradient id="linearGradient5176"><stop id="stop5178" offset="0" style="stop-color:#ebf0d0;stop-opacity:1"/><stop id="stop5180" offset="1" style="stop-color:#ffffeb;stop-opacity:1"/></linearGradient><linearGradient id="linearGradient5182" x1="2" x2="109" y1="63.1" y2="128.695" gradientTransform="translate(0.000000,-1.000000)" gradientUnits="userSpaceOnUse" xlink:href="#linearGradient2060"/><linearGradient id="linearGradient5579" x1="2" x2="109" y1="63.1" y2="128.695" gradientTransform="translate(0.000000,-1.000000)" gradientUnits="userSpaceOnUse" xlink:href="#linearGradient2060"/><linearGradient id="linearGradient5573"><stop id="stop5575" offset="0" style="stop-color:#ebf0d0;stop-opacity:1"/><stop id="stop5577" offset="1" style="stop-color:#ffffeb;stop-opacity:1"/></linearGradient><linearGradient id="linearGradient5567"><stop id="stop5569" offset="0" style="stop-color:#fff;stop-opacity:.5"/><stop id="stop5571" offset="1" style="stop-color:#fff;stop-opacity:0"/></linearGradient><linearGradient id="linearGradient5565" x1="2" x2="109" y1="63.1" y2="128.695" gradientTransform="translate(0.000000,-1.000000)" gradientUnits="userSpaceOnUse" xlink:href="#linearGradient2060"/><linearGradient id="linearGradient5563" x1="233.887" x2="159.435" y1="142.784" y2="209.561" gradientUnits="userSpaceOnUse" xlink:href="#linearGradient3920"/><linearGradient id="linearGradient5561" x1="233.887" x2="159.435" y1="142.784" y2="209.561" gradientUnits="userSpaceOnUse" xlink:href="#linearGradient3920"/><linearGradient id="linearGradient5559" x1="2" x2="109" y1="63.1" y2="128.695" gradientTransform="translate(0.000000,-1.000000)" gradientUnits="userSpaceOnUse" xlink:href="#linearGradient2060"/><linearGradient id="linearGradient5553"><stop id="stop5555" offset="0" style="stop-color:#fff;stop-opacity:.5"/><stop id="stop5557" offset="1" style="stop-color:#fff;stop-opacity:0"/></linearGradient><linearGradient id="linearGradient5547"><stop id="stop5549" offset="0" style="stop-color:#ebf0d0;stop-opacity:1"/><stop id="stop5551" offset="1" style="stop-color:#ffffeb;stop-opacity:1"/></linearGradient><linearGradient id="linearGradient5619" x1="2" x2="109" y1="63.1" y2="128.695" gradientTransform="translate(0.000000,-1.000000)" gradientUnits="userSpaceOnUse" xlink:href="#linearGradient2060"/><linearGradient id="linearGradient6183" x1="2" x2="109" y1="63.1" y2="128.695" gradientTransform="translate(0.000000,-1.000000)" gradientUnits="userSpaceOnUse" xlink:href="#linearGradient2060"/><linearGradient id="linearGradient6177"><stop id="stop6179" offset="0" style="stop-color:#ebf0d0;stop-opacity:1"/><stop id="stop6181" offset="1" style="stop-color:#ffffeb;stop-opacity:1"/></linearGradient><linearGradient id="linearGradient6171"><stop id="stop6173" offset="0" style="stop-color:#fff;stop-opacity:.5"/><stop id="stop6175" offset="1" style="stop-color:#fff;stop-opacity:0"/></linearGradient><linearGradient id="linearGradient6169" x1="2" x2="109" y1="63.1" y2="128.695" gradientTransform="translate(0.000000,-1.000000)" gradientUnits="userSpaceOnUse" xlink:href="#linearGradient2060"/><linearGradient id="linearGradient6167" x1="233.887" x2="159.435" y1="142.784" y2="209.561" gradientUnits="userSpaceOnUse" xlink:href="#linearGradient3920"/><linearGradient id="linearGradient6165" x1="233.887" x2="159.435" y1="142.784" y2="209.561" gradientUnits="userSpaceOnUse" xlink:href="#linearGradient3920"/><linearGradient id="linearGradient6163" x1="2" x2="109" y1="63.1" y2="128.695" gradientTransform="translate(0.000000,-1.000000)" gradientUnits="userSpaceOnUse" xlink:href="#linearGradient2060"/><linearGradient id="linearGradient6157"><stop id="stop6159" offset="0" style="stop-color:#fff;stop-opacity:.5"/><stop id="stop6161" offset="1" style="stop-color:#fff;stop-opacity:0"/></linearGradient><linearGradient id="linearGradient6151"><stop id="stop6153" offset="0" style="stop-color:#ebf0d0;stop-opacity:1"/><stop id="stop6155" offset="1" style="stop-color:#ffffeb;stop-opacity:1"/></linearGradient><linearGradient id="linearGradient6266" x1="2" x2="109" y1="63.1" y2="128.695" gradientTransform="translate(0.000000,-1.000000)" gradientUnits="userSpaceOnUse" xlink:href="#linearGradient2060"/><linearGradient id="linearGradient6464" x1="2" x2="109" y1="63.1" y2="128.695" gradientTransform="translate(0.000000,-1.000000)" gradientUnits="userSpaceOnUse" xlink:href="#linearGradient2060"/><linearGradient id="linearGradient6472" x1="2" x2="109" y1="63.1" y2="128.695" gradientTransform="translate(0.000000,-1.000000)" gradientUnits="userSpaceOnUse" xlink:href="#linearGradient2060"/></defs><g id="g5630"><path id="rect2070" d="M 21.000000,5.0000000 L 124.00000,5.0000000 C 132.86400,5.0000000 140.00000,12.136000 140.00000,21.000000 L 140.00000,174.00000 C 140.00000,182.86400 132.86400,190.00000 124.00000,190.00000 L 21.000000,190.00000 C 12.136000,190.00000 5.0000000,182.86400 5.0000000,174.00000 L 5.0000000,21.000000 C 5.0000000,12.136000 12.136000,5.0000000 21.000000,5.0000000 z" style="fill:#000;fill-opacity:.49803922;stroke:none;stroke-width:.2;stroke-miterlimit:4;stroke-dashoffset:0;stroke-opacity:1"/><path id="rect1300" d="M 17.000000,1.0000000 L 120.00000,1.0000000 C 128.86400,1.0000000 136.00000,8.1360000 136.00000,17.000000 L 136.00000,170.00000 C 136.00000,178.86400 128.86400,186.00000 120.00000,186.00000 L 17.000000,186.00000 C 8.1360000,186.00000 1.0000000,178.86400 1.0000000,170.00000 L 1.0000000,17.000000 C 1.0000000,8.1360000 8.1360000,1.0000000 17.000000,1.0000000 z" style="fill:#fff;fill-opacity:1;stroke:none;stroke-width:.2;stroke-miterlimit:4;stroke-dashoffset:0;stroke-opacity:1"/><path id="path5624" d="M 19.000000,3.0000000 L 122.00000,3.0000000 C 130.86400,3.0000000 138.00000,10.136000 138.00000,19.000000 L 138.00000,172.00000 C 138.00000,180.86400 130.86400,188.00000 122.00000,188.00000 L 19.000000,188.00000 C 10.136000,188.00000 3.0000000,180.86400 3.0000000,172.00000 L 3.0000000,19.000000 C 3.0000000,10.136000 10.136000,3.0000000 19.000000,3.0000000 z" style="fill:#c7891f;fill-opacity:1;stroke:none;stroke-width:.2;stroke-miterlimit:4;stroke-dashoffset:0;stroke-opacity:1"/><path id="rect1306" d="M 18.000000,1.9999995 L 121.00000,1.9999995 C 129.86400,1.9999995 137.00000,9.1359995 137.00000,18.000000 L 137.00000,171.00000 C 137.00000,179.86400 129.86400,187.00000 121.00000,187.00000 L 18.000000,187.00000 C 9.1360000,187.00000 2.0000000,179.86400 2.0000000,171.00000 L 2.0000000,18.000000 C 2.0000000,9.1359995 9.1360000,1.9999995 18.000000,1.9999995 z" style="fill:url(#linearGradient4853);fill-opacity:1;stroke:none;stroke-width:.2;stroke-miterlimit:4;stroke-dashoffset:0;stroke-opacity:1"/><path id="rect2941" d="M 53.000000,31.000000 C 43.599297,31.000000 36.000000,38.599297 36.000000,48.000000 L 36.000000,141.00000 C 36.000000,150.40070 43.599297,158.00000 53.000000,158.00000 L 86.000000,158.00000 C 95.400703,158.00000 103.00000,150.40070 103.00000,141.00000 L 103.00000,48.000000 C 103.00000,38.599297 95.400703,31.000000 86.000000,31.000000 L 53.000000,31.000000 z M 53.000000,33.000000 L 86.000000,33.000000 C 94.327297,33.000000 101.00000,39.672703 101.00000,48.000000 L 101.00000,141.00000 C 101.00000,149.32730 94.327297,156.00000 86.000000,156.00000 L 53.000000,156.00000 C 44.672703,156.00000 38.000000,149.32730 38.000000,141.00000 L 38.000000,48.000000 C 38.000000,39.672703 44.672703,33.000000 53.000000,33.000000 z" style="fill:#4f00a4;fill-opacity:1;stroke:none;stroke-width:2;stroke-miterlimit:4;stroke-dashoffset:0;stroke-opacity:1"/></g><path id="text1386" d="M 11.677030,42.368220 L 11.677030,18.778130 L 6.4400000,18.709360 L 6.6925800,15.086640 L 11.647010,11.998110 L 17.139230,11.998110 L 17.139230,42.368220 M 30.572790,27.146430 C 30.572770,23.395650 30.307580,20.756690 29.777370,19.229560 C 29.257180,17.689070 28.376870,16.918820 27.136330,16.918790 C 25.895860,16.918820 25.010530,17.689070 24.480300,19.229560 C 23.950130,20.756690 23.685010,23.395650 23.685020,27.146430 C 23.685010,30.937430 23.950130,33.609860 24.480300,35.163760 C 25.010530,36.717670 25.895860,37.494620 27.136330,37.494620 C 28.366840,37.494620 29.247200,36.717670 29.777370,35.163760 C 30.307580,33.609860 30.572770,30.937430 30.572790,27.146430 M 36.350000,27.206710 C 36.349970,32.176530 35.549700,36.014400 33.949060,38.720320 C 32.348460,41.412860 30.077490,42.759130 27.136330,42.759130 C 24.185190,42.759130 21.909330,41.412860 20.308700,38.720320 C 18.708070,36.014400 17.907820,32.176530 17.907820,27.206710 C 17.907820,22.223510 18.708070,18.385650 20.308700,15.693090 C 21.909330,12.987180 24.185190,11.634210 27.136330,11.634190 C 30.077490,11.634210 32.348460,12.987180 33.949060,15.693090 C 35.549700,18.385650 36.349970,22.223510 36.350000,27.206710" style="font-size:37.418476;font-style:normal;font-variant:normal;font-weight:700;font-stretch:normal;fill:red;fill-opacity:1;stroke:none;stroke-width:1px;stroke-linecap:butt;stroke-linejoin:miter;stroke-opacity:1;font-family:Bitstream Vera Sans;text-anchor:start;writing-mode:lr-tb"/><g id="g1390" transform="matrix(0.286388,0.000000,0.000000,0.388772,-29.60833,-9.472414)" style="fill:red;fill-opacity:1"><path id="path1392" d="M 147.20601,156.41679 C 144.67035,156.42954 141.88421,156.89888 138.79976,157.94804 C 105.17650,177.48492 150.50459,208.98936 169.64351,236.04179 L 170.19602,236.18010 C 191.22900,206.61098 231.26801,174.07246 200.67476,157.94804 C 176.43799,149.70401 169.96344,177.14611 169.73726,178.13554 C 169.53987,177.27202 164.59485,156.32936 147.20601,156.41679 z" transform="matrix(1.105375,0.000000,0.000000,1.079637,-12.01415,-18.86731)" style="fill-rule:evenodd;stroke:none;stroke-width:3.4289415;stroke-linecap:butt;stroke-linejoin:round;stroke-miterlimit:4;stroke-opacity:1"/></g><path id="path12191" d="M 127.18847,146.63178 L 127.18847,170.22187 L 132.42550,170.29064 L 132.17292,173.91336 L 127.21849,177.00189 L 121.72627,177.00189 L 121.72627,146.63178 M 108.29271,161.85357 C 108.29273,165.60435 108.55792,168.24331 109.08813,169.77044 C 109.60832,171.31093 110.48863,172.08118 111.72917,172.08121 C 112.96964,172.08118 113.85497,171.31093 114.38520,169.77044 C 114.91537,168.24331 115.18049,165.60435 115.18048,161.85357 C 115.18049,158.06257 114.91537,155.39014 114.38520,153.83624 C 113.85497,152.28233 112.96964,151.50538 111.72917,151.50538 C 110.49866,151.50538 109.61830,152.28233 109.08813,153.83624 C 108.55792,155.39014 108.29273,158.06257 108.29271,161.85357 M 102.51550,161.79329 C 102.51553,156.82347 103.31580,152.98560 104.91644,150.27968 C 106.51704,147.58714 108.78801,146.24087 111.72917,146.24087 C 114.68031,146.24087 116.95617,147.58714 118.55680,150.27968 C 120.15743,152.98560 120.95768,156.82347 120.95768,161.79329 C 120.95768,166.77649 120.15743,170.61435 118.55680,173.30691 C 116.95617,176.01282 114.68031,177.36579 111.72917,177.36581 C 108.78801,177.36579 106.51704,176.01282 104.91644,173.30691 C 103.31580,170.61435 102.51553,166.77649 102.51550,161.79329" style="font-size:37.418476;font-style:normal;font-variant:normal;font-weight:700;font-stretch:normal;fill:red;fill-opacity:1;stroke:none;stroke-width:1px;stroke-linecap:butt;stroke-linejoin:miter;stroke-opacity:1;font-family:Bitstream Vera Sans;text-anchor:start;writing-mode:lr-tb"/><path id="path12195" d="M 125.31035,139.99532 C 126.11306,139.98997 126.99505,139.79297 127.97148,139.35260 C 138.61546,131.15233 124.26613,117.92888 118.20740,106.57408 L 118.03250,106.51603 C 111.37417,118.92716 98.699178,132.58465 108.38396,139.35260 C 116.05650,142.81290 118.10613,131.29454 118.17772,130.87924 C 118.24021,131.24169 119.80563,140.03202 125.31035,139.99532 z" style="fill:red;fill-opacity:1;fill-rule:evenodd;stroke:none;stroke-width:3.4289415;stroke-linecap:butt;stroke-linejoin:round;stroke-miterlimit:4;stroke-opacity:1"/><g id="g1581" transform="matrix(0.166355,0.000000,0.000000,0.229660,40.05390,16.55240)" style="fill-opacity:1;fill:red"><path id="path1583" d="M 147.20601,156.41679 C 144.67035,156.42954 141.88421,156.89888 138.79976,157.94804 C 105.17650,177.48492 150.50459,208.98936 169.64351,236.04179 L 170.19602,236.18010 C 191.22900,206.61098 231.26801,174.07246 200.67476,157.94804 C 176.43799,149.70401 169.96344,177.14611 169.73726,178.13554 C 169.53987,177.27202 164.59485,156.32936 147.20601,156.41679 z" transform="matrix(1.105375,0.000000,0.000000,1.079637,-12.01415,-18.86731)" style="fill-rule:evenodd;stroke:none;stroke-width:3.4289415;stroke-linecap:butt;stroke-linejoin:round;stroke-miterlimit:4;stroke-opacity:1"/></g><g id="g1601" transform="matrix(-0.166355,0.000000,0.000000,-0.229660,97.94610,170.4476)" style="fill-opacity:1;fill:red"><path id="path1603" d="M 147.20601,156.41679 C 144.67035,156.42954 141.88421,156.89888 138.79976,157.94804 C 105.17650,177.48492 150.50459,208.98936 169.64351,236.04179 L 170.19602,236.18010 C 191.22900,206.61098 231.26801,174.07246 200.67476,157.94804 C 176.43799,149.70401 169.96344,177.14611 169.73726,178.13554 C 169.53987,177.27202 164.59485,156.32936 147.20601,156.41679 z" transform="matrix(1.105375,0.000000,0.000000,1.079637,-12.01415,-18.86731)" style="fill-rule:evenodd;stroke:none;stroke-width:3.4289415;stroke-linecap:butt;stroke-linejoin:round;stroke-miterlimit:4;stroke-opacity:1"/></g><g id="g6248" transform="matrix(0.166355,0.000000,0.000000,0.229660,19.05390,5.772340)" style="fill-opacity:1;fill:red"><path id="path6250" d="M 147.20601,156.41679 C 144.67035,156.42954 141.88421,156.89888 138.79976,157.94804 C 105.17650,177.48492 150.50459,208.98936 169.64351,236.04179 L 170.19602,236.18010 C 191.22900,206.61098 231.26801,174.07246 200.67476,157.94804 C 176.43799,149.70401 169.96344,177.14611 169.73726,178.13554 C 169.53987,177.27202 164.59485,156.32936 147.20601,156.41679 z" transform="matrix(1.105375,0.000000,0.000000,1.079637,-12.01415,-18.86731)" style="fill-rule:evenodd;stroke:none;stroke-width:3.4289415;stroke-linecap:butt;stroke-linejoin:round;stroke-miterlimit:4;stroke-opacity:1"/></g><g id="g5250" transform="matrix(0.166355,0.000000,0.000000,0.229660,58.05389,5.552380)" style="fill-opacity:1;fill:red"><path id="path5252" d="M 147.20601,156.41679 C 144.67035,156.42954 141.88421,156.89888 138.79976,157.94804 C 105.17650,177.48492 150.50459,208.98936 169.64351,236.04179 L 170.19602,236.18010 C 191.22900,206.61098 231.26801,174.07246 200.67476,157.94804 C 176.43799,149.70401 169.96344,177.14611 169.73726,178.13554 C 169.53987,177.27202 164.59485,156.32936 147.20601,156.41679 z" transform="matrix(1.105375,0.000000,0.000000,1.079637,-12.01415,-18.86731)" style="fill-rule:evenodd;stroke:none;stroke-width:3.4289415;stroke-linecap:butt;stroke-linejoin:round;stroke-miterlimit:4;stroke-opacity:1"/></g><g id="g5254" transform="matrix(0.166355,0.000000,0.000000,0.229660,19.69390,36.77234)" style="fill-opacity:1;fill:red"><path id="path5256" d="M 147.20601,156.41679 C 144.67035,156.42954 141.88421,156.89888 138.79976,157.94804 C 105.17650,177.48492 150.50459,208.98936 169.64351,236.04179 L 170.19602,236.18010 C 191.22900,206.61098 231.26801,174.07246 200.67476,157.94804 C 176.43799,149.70401 169.96344,177.14611 169.73726,178.13554 C 169.53987,177.27202 164.59485,156.32936 147.20601,156.41679 z" transform="matrix(1.105375,0.000000,0.000000,1.079637,-12.01415,-18.86731)" style="fill-rule:evenodd;stroke:none;stroke-width:3.4289415;stroke-linecap:butt;stroke-linejoin:round;stroke-miterlimit:4;stroke-opacity:1"/></g><g id="g5258" transform="matrix(0.166355,0.000000,0.000000,0.229660,59.05389,35.77234)" style="fill-opacity:1;fill:red"><path id="path5260" d="M 147.20601,156.41679 C 144.67035,156.42954 141.88421,156.89888 138.79976,157.94804 C 105.17650,177.48492 150.50459,208.98936 169.64351,236.04179 L 170.19602,236.18010 C 191.22900,206.61098 231.26801,174.07246 200.67476,157.94804 C 176.43799,149.70401 169.96344,177.14611 169.73726,178.13554 C 169.53987,177.27202 164.59485,156.32936 147.20601,156.41679 z" transform="matrix(1.105375,0.000000,0.000000,1.079637,-12.01415,-18.86731)" style="fill-rule:evenodd;stroke:none;stroke-width:3.4289415;stroke-linecap:butt;stroke-linejoin:round;stroke-miterlimit:4;stroke-opacity:1"/></g><g id="g5262" transform="matrix(-0.166355,0.000000,0.000000,-0.229660,78.30610,154.2277)" style="fill-opacity:1;fill:red"><path id="path5264" d="M 147.20601,156.41679 C 144.67035,156.42954 141.88421,156.89888 138.79976,157.94804 C 105.17650,177.48492 150.50459,208.98936 169.64351,236.04179 L 170.19602,236.18010 C 191.22900,206.61098 231.26801,174.07246 200.67476,157.94804 C 176.43799,149.70401 169.96344,177.14611 169.73726,178.13554 C 169.53987,177.27202 164.59485,156.32936 147.20601,156.41679 z" transform="matrix(1.105375,0.000000,0.000000,1.079637,-12.01415,-18.86731)" style="fill-rule:evenodd;stroke:none;stroke-width:3.4289415;stroke-linecap:butt;stroke-linejoin:round;stroke-miterlimit:4;stroke-opacity:1"/></g><g id="g5266" transform="matrix(-0.166355,0.000000,0.000000,-0.229660,78.94611,181.2277)" style="fill-opacity:1;fill:red"><path id="path5268" d="M 147.20601,156.41679 C 144.67035,156.42954 141.88421,156.89888 138.79976,157.94804 C 105.17650,177.48492 150.50459,208.98936 169.64351,236.04179 L 170.19602,236.18010 C 191.22900,206.61098 231.26801,174.07246 200.67476,157.94804 C 176.43799,149.70401 169.96344,177.14611 169.73726,178.13554 C 169.53987,177.27202 164.59485,156.32936 147.20601,156.41679 z" transform="matrix(1.105375,0.000000,0.000000,1.079637,-12.01415,-18.86731)" style="fill-rule:evenodd;stroke:none;stroke-width:3.4289415;stroke-linecap:butt;stroke-linejoin:round;stroke-miterlimit:4;stroke-opacity:1"/></g><g id="g5270" transform="matrix(-0.166355,0.000000,0.000000,-0.229660,116.3061,181.2277)" style="fill-opacity:1;fill:red"><path id="path5272" d="M 147.20601,156.41679 C 144.67035,156.42954 141.88421,156.89888 138.79976,157.94804 C 105.17650,177.48492 150.50459,208.98936 169.64351,236.04179 L 170.19602,236.18010 C 191.22900,206.61098 231.26801,174.07246 200.67476,157.94804 C 176.43799,149.70401 169.96344,177.14611 169.73726,178.13554 C 169.53987,177.27202 164.59485,156.32936 147.20601,156.41679 z" transform="matrix(1.105375,0.000000,0.000000,1.079637,-12.01415,-18.86731)" style="fill-rule:evenodd;stroke:none;stroke-width:3.4289415;stroke-linecap:butt;stroke-linejoin:round;stroke-miterlimit:4;stroke-opacity:1"/></g><g id="g5274" transform="matrix(-0.166355,0.000000,0.000000,-0.229660,117.9461,153.4476)" style="fill-opacity:1;fill:red"><path id="path5276" d="M 147.20601,156.41679 C 144.67035,156.42954 141.88421,156.89888 138.79976,157.94804 C 105.17650,177.48492 150.50459,208.98936 169.64351,236.04179 L 170.19602,236.18010 C 191.22900,206.61098 231.26801,174.07246 200.67476,157.94804 C 176.43799,149.70401 169.96344,177.14611 169.73726,178.13554 C 169.53987,177.27202 164.59485,156.32936 147.20601,156.41679 z" transform="matrix(1.105375,0.000000,0.000000,1.079637,-12.01415,-18.86731)" style="fill-rule:evenodd;stroke:none;stroke-width:3.4289415;stroke-linecap:butt;stroke-linejoin:round;stroke-miterlimit:4;stroke-opacity:1"/></g></svg>