<svg xmlns="http://www.w3.org/2000/svg" xmlns:cc="http://web.resource.org/cc/" xmlns:svg="http://www.w3.org/2000/svg" xmlns:xlink="http://www.w3.org/1999/xlink" id="svg2" width="140" height="190" x="0" y="0" version="1.0"><metadata/><defs id="defs3"><linearGradient id="linearGradient3920"><stop id="stop3922" offset="0" style="stop-color:#fff;stop-opacity:1"/><stop id="stop3924" offset="1" style="stop-color:#fff;stop-opacity:0"/></linearGradient><linearGradient id="linearGradient2060"><stop id="stop2062" offset="0" style="stop-color:#ebf0d0;stop-opacity:1"/><stop id="stop2064" offset="1" style="stop-color:#ffffeb;stop-opacity:1"/></linearGradient><linearGradient id="linearGradient1575"><stop id="stop1576" offset="0" style="stop-color:#fff;stop-opacity:.5"/><stop id="stop1577" offset="1" style="stop-color:#fff;stop-opacity:0"/></linearGradient><linearGradient id="linearGradient4853" x1="2" x2="109" y1="63.1" y2="128.695" gradientTransform="translate(0.000000,-1.000000)" gradientUnits="userSpaceOnUse" xlink:href="#linearGradient2060"/><linearGradient id="linearGradient3926" x1="233.887" x2="159.435" y1="142.784" y2="209.561" gradientUnits="userSpaceOnUse" xlink:href="#linearGradient3920"/><linearGradient id="linearGradient1368" x1="233.887" x2="159.435" y1="142.784" y2="209.561" gradientUnits="userSpaceOnUse" xlink:href="#linearGradient3920"/><linearGradient id="linearGradient1366" x1="2" x2="109" y1="63.1" y2="128.695" gradientTransform="translate(0.000000,-1.000000)" gradientUnits="userSpaceOnUse" xlink:href="#linearGradient2060"/><linearGradient id="linearGradient1360"><stop id="stop1362" offset="0" style="stop-color:#fff;stop-opacity:.5"/><stop id="stop1364" offset="1" style="stop-color:#fff;stop-opacity:0"/></linearGradient><linearGradient id="linearGradient1354"><stop id="stop1356" offset="0" style="stop-color:#ebf0d0;stop-opacity:1"/><stop id="stop1358" offset="1" style="stop-color:#ffffeb;stop-opacity:1"/></linearGradient><linearGradient id="linearGradient1398" x1="2" x2="109" y1="63.1" y2="128.695" gradientTransform="translate(0.000000,-1.000000)" gradientUnits="userSpaceOnUse" xlink:href="#linearGradient2060"/><linearGradient id="linearGradient3454" x1="2" x2="109" y1="63.1" y2="128.695" gradientTransform="translate(0.000000,-1.000000)" gradientUnits="userSpaceOnUse" xlink:href="#linearGradient2060"/><linearGradient id="linearGradient3390"><stop id="stop3392" offset="0" style="stop-color:#ebf0d0;stop-opacity:1"/><stop id="stop3394" offset="1" style="stop-color:#ffffeb;stop-opacity:1"/></linearGradient><linearGradient id="linearGradient3396"><stop id="stop3398" offset="0" style="stop-color:#fff;stop-opacity:.5"/><stop id="stop3400" offset="1" style="stop-color:#fff;stop-opacity:0"/></linearGradient><linearGradient id="linearGradient3402" x1="2" x2="109" y1="63.1" y2="128.695" gradientTransform="translate(0.000000,-1.000000)" gradientUnits="userSpaceOnUse" xlink:href="#linearGradient2060"/><linearGradient id="linearGradient3404" x1="233.887" x2="159.435" y1="142.784" y2="209.561" gradientUnits="userSpaceOnUse" xlink:href="#linearGradient3920"/><linearGradient id="linearGradient3406" x1="233.887" x2="159.435" y1="142.784" y2="209.561" gradientUnits="userSpaceOnUse" xlink:href="#linearGradient3920"/><linearGradient id="linearGradient3408" x1="2" x2="109" y1="63.1" y2="128.695" gradientTransform="translate(0.000000,-1.000000)" gradientUnits="userSpaceOnUse" xlink:href="#linearGradient2060"/><linearGradient id="linearGradient3410"><stop id="stop3412" offset="0" style="stop-color:#fff;stop-opacity:.5"/><stop id="stop3414" offset="1" style="stop-color:#fff;stop-opacity:0"/></linearGradient><linearGradient id="linearGradient3416"><stop id="stop3418" offset="0" style="stop-color:#ebf0d0;stop-opacity:1"/><stop id="stop3420" offset="1" style="stop-color:#ffffeb;stop-opacity:1"/></linearGradient><linearGradient id="linearGradient3422" x1="2" x2="109" y1="63.1" y2="128.695" gradientTransform="translate(0.000000,-1.000000)" gradientUnits="userSpaceOnUse" xlink:href="#linearGradient2060"/><linearGradient id="linearGradient2595" x1="2" x2="109" y1="63.1" y2="128.695" gradientTransform="translate(0.000000,-1.000000)" gradientUnits="userSpaceOnUse" xlink:href="#linearGradient2060"/><linearGradient id="linearGradient2535"><stop id="stop2537" offset="0" style="stop-color:#ebf0d0;stop-opacity:1"/><stop id="stop2539" offset="1" style="stop-color:#ffffeb;stop-opacity:1"/></linearGradient><linearGradient id="linearGradient2541"><stop id="stop2543" offset="0" style="stop-color:#fff;stop-opacity:.5"/><stop id="stop2545" offset="1" style="stop-color:#fff;stop-opacity:0"/></linearGradient><linearGradient id="linearGradient2547" x1="2" x2="109" y1="63.1" y2="128.695" gradientTransform="translate(0.000000,-1.000000)" gradientUnits="userSpaceOnUse" xlink:href="#linearGradient2060"/><linearGradient id="linearGradient2549" x1="233.887" x2="159.435" y1="142.784" y2="209.561" gradientUnits="userSpaceOnUse" xlink:href="#linearGradient3920"/><linearGradient id="linearGradient2551" x1="233.887" x2="159.435" y1="142.784" y2="209.561" gradientUnits="userSpaceOnUse" xlink:href="#linearGradient3920"/><linearGradient id="linearGradient2553" x1="2" x2="109" y1="63.1" y2="128.695" gradientTransform="translate(0.000000,-1.000000)" gradientUnits="userSpaceOnUse" xlink:href="#linearGradient2060"/><linearGradient id="linearGradient2555"><stop id="stop2557" offset="0" style="stop-color:#fff;stop-opacity:.5"/><stop id="stop2559" offset="1" style="stop-color:#fff;stop-opacity:0"/></linearGradient><linearGradient id="linearGradient2561"><stop id="stop2563" offset="0" style="stop-color:#ebf0d0;stop-opacity:1"/><stop id="stop2565" offset="1" style="stop-color:#ffffeb;stop-opacity:1"/></linearGradient><linearGradient id="linearGradient2567" x1="2" x2="109" y1="63.1" y2="128.695" gradientTransform="translate(0.000000,-1.000000)" gradientUnits="userSpaceOnUse" xlink:href="#linearGradient2060"/><linearGradient id="linearGradient2318"><stop id="stop2320" offset="0" style="stop-color:#ebf0d0;stop-opacity:1"/><stop id="stop2322" offset="1" style="stop-color:#ffffeb;stop-opacity:1"/></linearGradient><linearGradient id="linearGradient2324"><stop id="stop2326" offset="0" style="stop-color:#fff;stop-opacity:.5"/><stop id="stop2328" offset="1" style="stop-color:#fff;stop-opacity:0"/></linearGradient><linearGradient id="linearGradient2330" x1="2" x2="109" y1="63.1" y2="128.695" gradientTransform="translate(0.000000,-1.000000)" gradientUnits="userSpaceOnUse" xlink:href="#linearGradient2060"/><linearGradient id="linearGradient2332" x1="233.887" x2="159.435" y1="142.784" y2="209.561" gradientUnits="userSpaceOnUse" xlink:href="#linearGradient3920"/><linearGradient id="linearGradient2334" x1="233.887" x2="159.435" y1="142.784" y2="209.561" gradientUnits="userSpaceOnUse" xlink:href="#linearGradient3920"/><linearGradient id="linearGradient2336" x1="2" x2="109" y1="63.1" y2="128.695" gradientTransform="translate(0.000000,-1.000000)" gradientUnits="userSpaceOnUse" xlink:href="#linearGradient2060"/><linearGradient id="linearGradient2338"><stop id="stop2340" offset="0" style="stop-color:#fff;stop-opacity:.5"/><stop id="stop2342" offset="1" style="stop-color:#fff;stop-opacity:0"/></linearGradient><linearGradient id="linearGradient2344"><stop id="stop2346" offset="0" style="stop-color:#ebf0d0;stop-opacity:1"/><stop id="stop2348" offset="1" style="stop-color:#ffffeb;stop-opacity:1"/></linearGradient><linearGradient id="linearGradient2350" x1="2" x2="109" y1="63.1" y2="128.695" gradientTransform="translate(0.000000,-1.000000)" gradientUnits="userSpaceOnUse" xlink:href="#linearGradient2060"/><linearGradient id="linearGradient2981" x1="2" x2="109" y1="63.1" y2="128.695" gradientTransform="translate(0.000000,-1.000000)" gradientUnits="userSpaceOnUse" xlink:href="#linearGradient2060"/><linearGradient id="linearGradient2975"><stop id="stop2977" offset="0" style="stop-color:#ebf0d0;stop-opacity:1"/><stop id="stop2979" offset="1" style="stop-color:#ffffeb;stop-opacity:1"/></linearGradient><linearGradient id="linearGradient2969"><stop id="stop2971" offset="0" style="stop-color:#fff;stop-opacity:.5"/><stop id="stop2973" offset="1" style="stop-color:#fff;stop-opacity:0"/></linearGradient><linearGradient id="linearGradient2967" x1="2" x2="109" y1="63.1" y2="128.695" gradientTransform="translate(0.000000,-1.000000)" gradientUnits="userSpaceOnUse" xlink:href="#linearGradient2060"/><linearGradient id="linearGradient2965" x1="233.887" x2="159.435" y1="142.784" y2="209.561" gradientUnits="userSpaceOnUse" xlink:href="#linearGradient3920"/><linearGradient id="linearGradient2963" x1="233.887" x2="159.435" y1="142.784" y2="209.561" gradientUnits="userSpaceOnUse" xlink:href="#linearGradient3920"/><linearGradient id="linearGradient2961" x1="2" x2="109" y1="63.1" y2="128.695" gradientTransform="translate(0.000000,-1.000000)" gradientUnits="userSpaceOnUse" xlink:href="#linearGradient2060"/><linearGradient id="linearGradient2955"><stop id="stop2957" offset="0" style="stop-color:#fff;stop-opacity:.5"/><stop id="stop2959" offset="1" style="stop-color:#fff;stop-opacity:0"/></linearGradient><linearGradient id="linearGradient2949"><stop id="stop2951" offset="0" style="stop-color:#ebf0d0;stop-opacity:1"/><stop id="stop2953" offset="1" style="stop-color:#ffffeb;stop-opacity:1"/></linearGradient><linearGradient id="linearGradient3067" x1="2" x2="109" y1="63.1" y2="128.695" gradientTransform="translate(0.000000,-1.000000)" gradientUnits="userSpaceOnUse" xlink:href="#linearGradient2060"/></defs><g id="g5630"><path id="rect2070" d="M 21.000000,5.0000000 L 124.00000,5.0000000 C 132.86400,5.0000000 140.00000,12.136000 140.00000,21.000000 L 140.00000,174.00000 C 140.00000,182.86400 132.86400,190.00000 124.00000,190.00000 L 21.000000,190.00000 C 12.136000,190.00000 5.0000000,182.86400 5.0000000,174.00000 L 5.0000000,21.000000 C 5.0000000,12.136000 12.136000,5.0000000 21.000000,5.0000000 z" style="fill:#000;fill-opacity:.49803922;stroke:none;stroke-width:.2;stroke-miterlimit:4;stroke-dashoffset:0;stroke-opacity:1"/><path id="rect1300" d="M 17.000000,1.0000000 L 120.00000,1.0000000 C 128.86400,1.0000000 136.00000,8.1360000 136.00000,17.000000 L 136.00000,170.00000 C 136.00000,178.86400 128.86400,186.00000 120.00000,186.00000 L 17.000000,186.00000 C 8.1360000,186.00000 1.0000000,178.86400 1.0000000,170.00000 L 1.0000000,17.000000 C 1.0000000,8.1360000 8.1360000,1.0000000 17.000000,1.0000000 z" style="fill:#fff;fill-opacity:1;stroke:none;stroke-width:.2;stroke-miterlimit:4;stroke-dashoffset:0;stroke-opacity:1"/><path id="path5624" d="M 19.000000,3.0000000 L 122.00000,3.0000000 C 130.86400,3.0000000 138.00000,10.136000 138.00000,19.000000 L 138.00000,172.00000 C 138.00000,180.86400 130.86400,188.00000 122.00000,188.00000 L 19.000000,188.00000 C 10.136000,188.00000 3.0000000,180.86400 3.0000000,172.00000 L 3.0000000,19.000000 C 3.0000000,10.136000 10.136000,3.0000000 19.000000,3.0000000 z" style="fill:#c7891f;fill-opacity:1;stroke:none;stroke-width:.2;stroke-miterlimit:4;stroke-dashoffset:0;stroke-opacity:1"/><path id="rect1306" d="M 18.000000,1.9999995 L 121.00000,1.9999995 C 129.86400,1.9999995 137.00000,9.1359995 137.00000,18.000000 L 137.00000,171.00000 C 137.00000,179.86400 129.86400,187.00000 121.00000,187.00000 L 18.000000,187.00000 C 9.1360000,187.00000 2.0000000,179.86400 2.0000000,171.00000 L 2.0000000,18.000000 C 2.0000000,9.1359995 9.1360000,1.9999995 18.000000,1.9999995 z" style="fill:url(#linearGradient4853);fill-opacity:1;stroke:none;stroke-width:.2;stroke-miterlimit:4;stroke-dashoffset:0;stroke-opacity:1"/><path id="rect2941" d="M 53.000000,31.000000 C 43.599297,31.000000 36.000000,38.599297 36.000000,48.000000 L 36.000000,141.00000 C 36.000000,150.40070 43.599297,158.00000 53.000000,158.00000 L 86.000000,158.00000 C 95.400703,158.00000 103.00000,150.40070 103.00000,141.00000 L 103.00000,48.000000 C 103.00000,38.599297 95.400703,31.000000 86.000000,31.000000 L 53.000000,31.000000 z M 53.000000,33.000000 L 86.000000,33.000000 C 94.327297,33.000000 101.00000,39.672703 101.00000,48.000000 L 101.00000,141.00000 C 101.00000,149.32730 94.327297,156.00000 86.000000,156.00000 L 53.000000,156.00000 C 44.672703,156.00000 38.000000,149.32730 38.000000,141.00000 L 38.000000,48.000000 C 38.000000,39.672703 44.672703,33.000000 53.000000,33.000000 z" style="fill:#4f00a4;fill-opacity:1;stroke:none;stroke-width:2;stroke-miterlimit:4;stroke-dashoffset:0;stroke-opacity:1"/></g><path id="text1386" d="M 21.524934,18.367766 L 14.514143,30.926246 L 21.524934,30.926246 L 21.524934,18.367766 M 20.461686,11.998106 L 27.572156,11.998106 L 27.572156,30.926246 L 31.110778,30.926246 L 31.110778,36.532352 L 27.572156,36.532352 L 27.572156,41.997802 L 21.524934,41.997802 L 21.524934,36.532352 L 10.526963,36.532352 L 10.526963,29.901474 L 20.461686,11.998106" style="font-size:37.418461;font-style:normal;font-variant:normal;font-weight:700;font-stretch:normal;fill:red;fill-opacity:1;stroke:none;stroke-width:1px;stroke-linecap:butt;stroke-linejoin:miter;stroke-opacity:1;font-family:Bitstream Vera Sans;text-anchor:start;writing-mode:lr-tb"/><g id="g1390" transform="matrix(0.286388,0.000000,0.000000,0.388772,-29.60833,-9.472414)" style="fill:red;fill-opacity:1"><path id="path1392" d="M 147.20601,156.41679 C 144.67035,156.42954 141.88421,156.89888 138.79976,157.94804 C 105.17650,177.48492 150.50459,208.98936 169.64351,236.04179 L 170.19602,236.18010 C 191.22900,206.61098 231.26801,174.07246 200.67476,157.94804 C 176.43799,149.70401 169.96344,177.14611 169.73726,178.13554 C 169.53987,177.27202 164.59485,156.32936 147.20601,156.41679 z" transform="matrix(1.105375,0.000000,0.000000,1.079637,-12.01415,-18.86731)" style="fill-rule:evenodd;stroke:none;stroke-width:3.4289415;stroke-linecap:butt;stroke-linejoin:round;stroke-miterlimit:4;stroke-opacity:1"/></g><path id="text13201" d="M 117.34052,170.63216 L 124.35131,158.07368 L 117.34052,158.07368 L 117.34052,170.63216 M 118.40377,177.00182 L 111.29330,177.00182 L 111.29330,158.07368 L 107.75467,158.07368 L 107.75467,152.46758 L 111.29330,152.46758 L 111.29330,147.00213 L 117.34052,147.00213 L 117.34052,152.46758 L 128.33849,152.46758 L 128.33849,159.09845 L 118.40377,177.00182" style="font-size:37.418461;font-style:normal;font-variant:normal;font-weight:700;font-stretch:normal;fill:red;fill-opacity:1;stroke:none;stroke-width:1px;stroke-linecap:butt;stroke-linejoin:miter;stroke-opacity:1;font-family:Bitstream Vera Sans;text-anchor:start;writing-mode:lr-tb"/><g id="g13205" transform="matrix(-0.286388,0.000000,0.000000,-0.388772,168.4700,198.3135)" style="fill:red;fill-opacity:1"><path id="path13207" d="M 147.20601,156.41679 C 144.67035,156.42954 141.88421,156.89888 138.79976,157.94804 C 105.17650,177.48492 150.50459,208.98936 169.64351,236.04179 L 170.19602,236.18010 C 191.22900,206.61098 231.26801,174.07246 200.67476,157.94804 C 176.43799,149.70401 169.96344,177.14611 169.73726,178.13554 C 169.53987,177.27202 164.59485,156.32936 147.20601,156.41679 z" transform="matrix(1.105375,0.000000,0.000000,1.079637,-12.01415,-18.86731)" style="fill-rule:evenodd;stroke:none;stroke-width:3.4289415;stroke-linecap:butt;stroke-linejoin:round;stroke-miterlimit:4;stroke-opacity:1"/></g><g id="g1861" transform="matrix(0.166355,0.000000,0.000000,0.229660,22.05389,10.77234)" style="fill-opacity:1;fill:red"><path id="path1863" d="M 147.20601,156.41679 C 144.67035,156.42954 141.88421,156.89888 138.79976,157.94804 C 105.17650,177.48492 150.50459,208.98936 169.64351,236.04179 L 170.19602,236.18010 C 191.22900,206.61098 231.26801,174.07246 200.67476,157.94804 C 176.43799,149.70401 169.96344,177.14611 169.73726,178.13554 C 169.53987,177.27202 164.59485,156.32936 147.20601,156.41679 z" transform="matrix(1.105375,0.000000,0.000000,1.079637,-12.01415,-18.86731)" style="fill-rule:evenodd;stroke:none;stroke-width:3.4289415;stroke-linecap:butt;stroke-linejoin:round;stroke-miterlimit:4;stroke-opacity:1"/></g><g id="g3081" transform="matrix(0.166355,0.000000,0.000000,0.229660,58.05389,10.77234)" style="fill-opacity:1;fill:red"><path id="path3083" d="M 147.20601,156.41679 C 144.67035,156.42954 141.88421,156.89888 138.79976,157.94804 C 105.17650,177.48492 150.50459,208.98936 169.64351,236.04179 L 170.19602,236.18010 C 191.22900,206.61098 231.26801,174.07246 200.67476,157.94804 C 176.43799,149.70401 169.96344,177.14611 169.73726,178.13554 C 169.53987,177.27202 164.59485,156.32936 147.20601,156.41679 z" transform="matrix(1.105375,0.000000,0.000000,1.079637,-12.01415,-18.86731)" style="fill-rule:evenodd;stroke:none;stroke-width:3.4289415;stroke-linecap:butt;stroke-linejoin:round;stroke-miterlimit:4;stroke-opacity:1"/></g><g id="g3085" transform="matrix(-0.166355,0.000000,0.000000,-0.229660,82.30610,176.4476)" style="fill-opacity:1;fill:red"><path id="path3087" d="M 147.20601,156.41679 C 144.67035,156.42954 141.88421,156.89888 138.79976,157.94804 C 105.17650,177.48492 150.50459,208.98936 169.64351,236.04179 L 170.19602,236.18010 C 191.22900,206.61098 231.26801,174.07246 200.67476,157.94804 C 176.43799,149.70401 169.96344,177.14611 169.73726,178.13554 C 169.53987,177.27202 164.59485,156.32936 147.20601,156.41679 z" transform="matrix(1.105375,0.000000,0.000000,1.079637,-12.01415,-18.86731)" style="fill-rule:evenodd;stroke:none;stroke-width:3.4289415;stroke-linecap:butt;stroke-linejoin:round;stroke-miterlimit:4;stroke-opacity:1"/></g><g id="g3089" transform="matrix(-0.166355,0.000000,0.000000,-0.229660,117.3061,176.2277)" style="fill-opacity:1;fill:red"><path id="path3091" d="M 147.20601,156.41679 C 144.67035,156.42954 141.88421,156.89888 138.79976,157.94804 C 105.17650,177.48492 150.50459,208.98936 169.64351,236.04179 L 170.19602,236.18010 C 191.22900,206.61098 231.26801,174.07246 200.67476,157.94804 C 176.43799,149.70401 169.96344,177.14611 169.73726,178.13554 C 169.53987,177.27202 164.59485,156.32936 147.20601,156.41679 z" transform="matrix(1.105375,0.000000,0.000000,1.079637,-12.01415,-18.86731)" style="fill-rule:evenodd;stroke:none;stroke-width:3.4289415;stroke-linecap:butt;stroke-linejoin:round;stroke-miterlimit:4;stroke-opacity:1"/></g></svg>