<svg xmlns="http://www.w3.org/2000/svg" xmlns:cc="http://web.resource.org/cc/" xmlns:svg="http://www.w3.org/2000/svg" xmlns:xlink="http://www.w3.org/1999/xlink" id="svg2" width="140" height="190" x="0" y="0" version="1.0"><metadata/><defs id="defs3"><linearGradient id="linearGradient3920"><stop id="stop3922" offset="0" style="stop-color:#fff;stop-opacity:1"/><stop id="stop3924" offset="1" style="stop-color:#fff;stop-opacity:0"/></linearGradient><linearGradient id="linearGradient2060"><stop id="stop2062" offset="0" style="stop-color:#ebf0d0;stop-opacity:1"/><stop id="stop2064" offset="1" style="stop-color:#ffffeb;stop-opacity:1"/></linearGradient><linearGradient id="linearGradient1575"><stop id="stop1576" offset="0" style="stop-color:#fff;stop-opacity:.5"/><stop id="stop1577" offset="1" style="stop-color:#fff;stop-opacity:0"/></linearGradient><linearGradient id="linearGradient4853" x1="2" x2="109" y1="63.1" y2="128.695" gradientTransform="translate(0.000000,-1.000000)" gradientUnits="userSpaceOnUse" xlink:href="#linearGradient2060"/><linearGradient id="linearGradient3926" x1="233.887" x2="159.435" y1="142.784" y2="209.561" gradientUnits="userSpaceOnUse" xlink:href="#linearGradient3920"/></defs><g id="g5630"><path id="rect2070" d="M 21.000000,5.0000000 L 124.00000,5.0000000 C 132.86400,5.0000000 140.00000,12.136000 140.00000,21.000000 L 140.00000,174.00000 C 140.00000,182.86400 132.86400,190.00000 124.00000,190.00000 L 21.000000,190.00000 C 12.136000,190.00000 5.0000000,182.86400 5.0000000,174.00000 L 5.0000000,21.000000 C 5.0000000,12.136000 12.136000,5.0000000 21.000000,5.0000000 z" style="fill:#000;fill-opacity:.49803922;stroke:none;stroke-width:.2;stroke-miterlimit:4;stroke-dashoffset:0;stroke-opacity:1"/><path id="rect1300" d="M 17.000000,1.0000000 L 120.00000,1.0000000 C 128.86400,1.0000000 136.00000,8.1360000 136.00000,17.000000 L 136.00000,170.00000 C 136.00000,178.86400 128.86400,186.00000 120.00000,186.00000 L 17.000000,186.00000 C 8.1360000,186.00000 1.0000000,178.86400 1.0000000,170.00000 L 1.0000000,17.000000 C 1.0000000,8.1360000 8.1360000,1.0000000 17.000000,1.0000000 z" style="fill:#fff;fill-opacity:1;stroke:none;stroke-width:.2;stroke-miterlimit:4;stroke-dashoffset:0;stroke-opacity:1"/><path id="path5624" d="M 19.000000,3.0000000 L 122.00000,3.0000000 C 130.86400,3.0000000 138.00000,10.136000 138.00000,19.000000 L 138.00000,172.00000 C 138.00000,180.86400 130.86400,188.00000 122.00000,188.00000 L 19.000000,188.00000 C 10.136000,188.00000 3.0000000,180.86400 3.0000000,172.00000 L 3.0000000,19.000000 C 3.0000000,10.136000 10.136000,3.0000000 19.000000,3.0000000 z" style="fill:#c7891f;fill-opacity:1;stroke:none;stroke-width:.2;stroke-miterlimit:4;stroke-dashoffset:0;stroke-opacity:1"/><path id="rect1306" d="M 18.000000,1.9999995 L 121.00000,1.9999995 C 129.86400,1.9999995 137.00000,9.1359995 137.00000,18.000000 L 137.00000,171.00000 C 137.00000,179.86400 129.86400,187.00000 121.00000,187.00000 L 18.000000,187.00000 C 9.1360000,187.00000 2.0000000,179.86400 2.0000000,171.00000 L 2.0000000,18.000000 C 2.0000000,9.1359995 9.1360000,1.9999995 18.000000,1.9999995 z" style="fill:url(#linearGradient4853);fill-opacity:1;stroke:none;stroke-width:.2;stroke-miterlimit:4;stroke-dashoffset:0;stroke-opacity:1"/><path id="rect2941" d="M 53.000000,31.000000 C 43.599297,31.000000 36.000000,38.599297 36.000000,48.000000 L 36.000000,141.00000 C 36.000000,150.40070 43.599297,158.00000 53.000000,158.00000 L 86.000000,158.00000 C 95.400703,158.00000 103.00000,150.40070 103.00000,141.00000 L 103.00000,48.000000 C 103.00000,38.599297 95.400703,31.000000 86.000000,31.000000 L 53.000000,31.000000 z M 53.000000,33.000000 L 86.000000,33.000000 C 94.327297,33.000000 101.00000,39.672703 101.00000,48.000000 L 101.00000,141.00000 C 101.00000,149.32730 94.327297,156.00000 86.000000,156.00000 L 53.000000,156.00000 C 44.672703,156.00000 38.000000,149.32730 38.000000,141.00000 L 38.000000,48.000000 C 38.000000,39.672703 44.672703,33.000000 53.000000,33.000000 z" style="fill:#4f00a4;fill-opacity:1;stroke:none;stroke-width:2;stroke-miterlimit:4;stroke-dashoffset:0;stroke-opacity:1"/></g><path id="text2070" d="M 25.448816,36.534318 L 15.447555,36.534318 L 13.869283,41.999815 L 7.4399004,41.999815 L 16.627105,11.999862 L 24.252652,11.999862 L 33.439857,41.999815 L 27.010475,41.999815 L 25.448816,36.534318 M 17.042441,30.968353 L 23.837317,30.968353 L 20.448185,19.032671 L 17.042441,30.968353" style="font-size:37.418781;font-style:normal;font-variant:normal;font-weight:700;font-stretch:normal;fill:red;fill-opacity:1;stroke:none;stroke-width:1px;stroke-linecap:butt;stroke-linejoin:miter;stroke-opacity:1;font-family:Bitstream Vera Sans;text-anchor:start;writing-mode:lr-tb"/><g id="g1605" transform="matrix(0.286388,0.000000,0.000000,0.388772,-29.03393,-9.472414)" style="fill:red;fill-opacity:1"><path id="path1585" d="M 147.20601,156.41679 C 144.67035,156.42954 141.88421,156.89888 138.79976,157.94804 C 105.17650,177.48492 150.50459,208.98936 169.64351,236.04179 L 170.19602,236.18010 C 191.22900,206.61098 231.26801,174.07246 200.67476,157.94804 C 176.43799,149.70401 169.96344,177.14611 169.73726,178.13554 C 169.53987,177.27202 164.59485,156.32936 147.20601,156.41679 z" transform="matrix(1.105375,0.000000,0.000000,1.079637,-12.01415,-18.86731)" style="fill-rule:evenodd;stroke:none;stroke-width:3.4289415;stroke-linecap:butt;stroke-linejoin:round;stroke-miterlimit:4;stroke-opacity:1"/></g><path id="text15628" d="M 113.57164,152.46561 L 123.57290,152.46561 L 125.15117,147.00012 L 131.58055,147.00012 L 122.39335,177.00007 L 114.76780,177.00007 L 105.58060,147.00012 L 112.00998,147.00012 L 113.57164,152.46561 M 121.97802,158.03158 L 115.18313,158.03158 L 118.57226,169.96725 L 121.97802,158.03158" style="font-size:37.418781;font-style:normal;font-variant:normal;font-weight:700;font-stretch:normal;fill:red;fill-opacity:1;stroke:none;stroke-width:1px;stroke-linecap:butt;stroke-linejoin:miter;stroke-opacity:1;font-family:Bitstream Vera Sans;text-anchor:start;writing-mode:lr-tb"/><g id="g15632" transform="matrix(-0.286429,0.000000,0.000000,-0.388772,168.0597,198.3135)" style="fill:red;fill-opacity:1"><path id="path15634" d="M 147.20601,156.41679 C 144.67035,156.42954 141.88421,156.89888 138.79976,157.94804 C 105.17650,177.48492 150.50459,208.98936 169.64351,236.04179 L 170.19602,236.18010 C 191.22900,206.61098 231.26801,174.07246 200.67476,157.94804 C 176.43799,149.70401 169.96344,177.14611 169.73726,178.13554 C 169.53987,177.27202 164.59485,156.32936 147.20601,156.41679 z" transform="matrix(1.105375,0.000000,0.000000,1.079637,-12.01415,-18.86731)" style="fill-rule:evenodd;stroke:none;stroke-width:3.4289415;stroke-linecap:butt;stroke-linejoin:round;stroke-miterlimit:4;stroke-opacity:1"/></g><g id="g1318" transform="matrix(0.613301,0.000000,0.000000,0.839802,-37.91916,-66.91528)" style="fill-opacity:1;fill:red"><path id="path1320" d="M 147.20601,156.41679 C 144.67035,156.42954 141.88421,156.89888 138.79976,157.94804 C 105.17650,177.48492 150.50459,208.98936 169.64351,236.04179 L 170.19602,236.18010 C 191.22900,206.61098 231.26801,174.07246 200.67476,157.94804 C 176.43799,149.70401 169.96344,177.14611 169.73726,178.13554 C 169.53987,177.27202 164.59485,156.32936 147.20601,156.41679 z" transform="matrix(1.105375,0.000000,0.000000,1.079637,-12.01415,-18.86731)" style="fill-rule:evenodd;stroke:none;stroke-width:3.4289415;stroke-linecap:butt;stroke-linejoin:round;stroke-miterlimit:4;stroke-opacity:1"/></g></svg>