<svg xmlns="http://www.w3.org/2000/svg" xmlns:cc="http://web.resource.org/cc/" xmlns:svg="http://www.w3.org/2000/svg" xmlns:xlink="http://www.w3.org/1999/xlink" id="svg2" width="140" height="190" x="0" y="0" version="1.0"><metadata/><defs id="defs3"><linearGradient id="linearGradient8304"><stop id="stop8314" offset="0" style="stop-color:#830007;stop-opacity:1"/><stop id="stop8316" offset="1" style="stop-color:red;stop-opacity:1"/></linearGradient><linearGradient id="linearGradient2060"><stop id="stop2062" offset="0" style="stop-color:#ebf0d0;stop-opacity:1"/><stop id="stop2064" offset="1" style="stop-color:#ffffeb;stop-opacity:1"/></linearGradient><linearGradient id="linearGradient4853" x1="2" x2="109" y1="63.1" y2="128.695" gradientTransform="translate(0.000000,-1.000000)" gradientUnits="userSpaceOnUse" xlink:href="#linearGradient2060"/><linearGradient id="linearGradient8318" x1="138.234" x2="36.52" y1="146.617" y2="18.728" gradientTransform="scale(0.854242,1.170628)" gradientUnits="userSpaceOnUse" xlink:href="#linearGradient8304"/><linearGradient id="linearGradient9086" x1="22.029" x2="146.399" y1="17.153" y2="140.454" gradientTransform="scale(0.855373,1.169081)" gradientUnits="userSpaceOnUse" xlink:href="#linearGradient8304"/><pattern id="pattern10642" width="14.142" height="13.75" patternTransform="translate(15.00000,-5.000000)" patternUnits="userSpaceOnUse"><g id="g10644" transform="translate(31.25001,-2.928924)" style="fill:#fff;fill-opacity:1"><rect id="rect10646" width="5" height="5" x="-17.526" y="21.668" transform="matrix(0.707107,0.707107,-0.707107,0.707107,0.000000,0.000000)" style="stroke:none;stroke-width:1.25;stroke-miterlimit:4;stroke-opacity:1"/><rect id="rect10648" width="5" height="5" x="-12.803" y="26.391" transform="matrix(0.707107,0.707107,-0.707107,0.707107,0.000000,0.000000)" style="stroke:none;stroke-width:1.25;stroke-miterlimit:4;stroke-opacity:1"/><rect id="rect10650" width="5" height="5" x="-12.526" y="16.668" transform="matrix(0.707107,0.707107,-0.707107,0.707107,0.000000,0.000000)" style="stroke:none;stroke-width:1.25;stroke-miterlimit:4;stroke-opacity:1"/><rect id="rect10652" width="5" height="5" x="-7.803" y="21.391" transform="matrix(0.707107,0.707107,-0.707107,0.707107,0.000000,0.000000)" style="stroke:none;stroke-width:1.25;stroke-miterlimit:4;stroke-opacity:1"/></g></pattern></defs><g id="g5630"><path id="rect2070" d="M 21.000000,5.0000000 L 124.00000,5.0000000 C 132.86400,5.0000000 140.00000,12.136000 140.00000,21.000000 L 140.00000,174.00000 C 140.00000,182.86400 132.86400,190.00000 124.00000,190.00000 L 21.000000,190.00000 C 12.136000,190.00000 5.0000000,182.86400 5.0000000,174.00000 L 5.0000000,21.000000 C 5.0000000,12.136000 12.136000,5.0000000 21.000000,5.0000000 z" style="fill:#000;fill-opacity:.49803922;stroke:none;stroke-width:.2;stroke-miterlimit:4;stroke-dashoffset:0;stroke-opacity:1"/><path id="rect1300" d="M 17.000000,1.0000000 L 120.00000,1.0000000 C 128.86400,1.0000000 136.00000,8.1360000 136.00000,17.000000 L 136.00000,170.00000 C 136.00000,178.86400 128.86400,186.00000 120.00000,186.00000 L 17.000000,186.00000 C 8.1360000,186.00000 1.0000000,178.86400 1.0000000,170.00000 L 1.0000000,17.000000 C 1.0000000,8.1360000 8.1360000,1.0000000 17.000000,1.0000000 z" style="fill:#fff;fill-opacity:1;stroke:none;stroke-width:.2;stroke-miterlimit:4;stroke-dashoffset:0;stroke-opacity:1"/><path id="path5624" d="M 19.000000,3.0000000 L 122.00000,3.0000000 C 130.86400,3.0000000 138.00000,10.136000 138.00000,19.000000 L 138.00000,172.00000 C 138.00000,180.86400 130.86400,188.00000 122.00000,188.00000 L 19.000000,188.00000 C 10.136000,188.00000 3.0000000,180.86400 3.0000000,172.00000 L 3.0000000,19.000000 C 3.0000000,10.136000 10.136000,3.0000000 19.000000,3.0000000 z" style="fill:#c7891f;fill-opacity:1;stroke:none;stroke-width:.2;stroke-miterlimit:4;stroke-dashoffset:0;stroke-opacity:1"/><path id="rect1306" d="M 18.000000,1.9999995 L 121.00000,1.9999995 C 129.86400,1.9999995 137.00000,9.1359995 137.00000,18.000000 L 137.00000,171.00000 C 137.00000,179.86400 129.86400,187.00000 121.00000,187.00000 L 18.000000,187.00000 C 9.1360000,187.00000 2.0000000,179.86400 2.0000000,171.00000 L 2.0000000,18.000000 C 2.0000000,9.1359995 9.1360000,1.9999995 18.000000,1.9999995 z" style="fill:url(#linearGradient4853);fill-opacity:1;stroke:none;stroke-width:.2;stroke-miterlimit:4;stroke-dashoffset:0;stroke-opacity:1"/></g><path id="path1385" d="M 22.166666,10.000000 L 116.58333,10.000000 C 124.70867,10.000000 131.25000,16.541333 131.25000,24.666666 L 131.25000,164.91666 C 131.25000,173.04200 124.70867,179.58333 116.58333,179.58333 L 22.166666,179.58333 C 14.041333,179.58333 7.5000000,173.04200 7.5000000,164.91666 L 7.5000000,24.666666 C 7.5000000,16.541333 14.041333,10.000000 22.166666,10.000000 z" style="fill:url(#linearGradient8318);fill-opacity:1;stroke:none;stroke-width:.2;stroke-miterlimit:4;stroke-dashoffset:0;stroke-opacity:1"/><path id="path9846" d="M 22.166666,10.000000 L 116.58333,10.000000 C 124.70867,10.000000 131.25000,16.541333 131.25000,24.666666 L 131.25000,164.91666 C 131.25000,173.04200 124.70867,179.58333 116.58333,179.58333 L 22.166666,179.58333 C 14.041333,179.58333 7.5000000,173.04200 7.5000000,164.91666 L 7.5000000,24.666666 C 7.5000000,16.541333 14.041333,10.000000 22.166666,10.000000 z" style="fill:url(#pattern10642);fill-opacity:1;stroke:none;stroke-width:.2;stroke-miterlimit:4;stroke-dashoffset:0;stroke-opacity:1"/><path id="path2154" d="M 22.156250,9.3750000 C 13.695478,9.3750000 6.8750000,16.195478 6.8750000,24.656250 L 6.8750000,164.90625 C 6.8750000,173.36703 13.695478,180.21875 22.156250,180.21875 L 116.59375,180.21875 C 125.05453,180.21875 131.87500,173.36703 131.87500,164.90625 L 131.87500,24.656250 C 131.87500,16.195478 125.05453,9.3750000 116.59375,9.3750000 L 22.156250,9.3750000 z M 22.156250,10.625000 L 116.59375,10.625000 C 124.38365,10.625000 130.62500,16.866356 130.62500,24.656250 L 130.62500,164.90625 C 130.62500,172.69615 124.38365,178.96875 116.59375,178.96875 L 22.156250,178.96875 C 14.366356,178.96875 8.1250000,172.69615 8.1250000,164.90625 L 8.1250000,24.656250 C 8.1250000,16.866356 14.366356,10.625000 22.156250,10.625000 z" style="fill:url(#linearGradient9086);fill-opacity:1;stroke:none;stroke-width:1.25;stroke-miterlimit:4;stroke-dashoffset:0;stroke-opacity:1"/></svg>